:SAMPLES-PER-SECOND 30
:FRAME-RANGE 1-2045
:FULLY-SPECIFIED
:DEGREES
1854
root  -7.40468 34.0536 -32.5485 6.64911 52.1798 -4.76141
RightUpLeg  -42.182 -6.39917 -21.8159
RightLeg  41.7684 -14.1569 -13.4287
RightFoot  -8.86354 -0.169135 5.03132
RightToes  -5.28216e-011 1.2921e-014 -6.02303e-014
Spine  23.5786 -1.815 -0.571914
Spine1  0.149692 -1.29733 -1.5062
HEad  -10.9906 -22.9442 12.5058
LeftShoulder1  2.00719 -5.63502 -15.9409
LeftArm  -3.17801 -19.6935 -52.5707
LeftForeArm  8.29763 -7.23971 -10.8135
LeftHand  -0.0361676 2.98898 0.998298
RightShoulder  2.4101 4.29241 25.7296
RightArm  -37.655 17.0872 52.9632
RightForeArm  23.2626 2.3672 -3.61273
RightHand  -0.372402 0.150336 -7.85908
LeftUpLeg  -26.2656 5.56461 24.761
LeftLeg  50.1339 -4.43609 -5.22387
LeftFoot  -30.1718 -3.20389 -20.2268
LeftToes  9.43379e-011 5.24309e-011 -4.66411e-011
1855
root  -7.60369 34.1718 -31.1201 8.53632 50.091 -3.09662
RightUpLeg  -42.9048 -9.88959 -20.2325
RightLeg  41.7393 -14.0846 -13.3541
RightFoot  -7.05399 -0.341905 7.83796
RightToes  -5.28216e-011 1.2921e-014 -6.02303e-014
Spine  21.9999 -2.08751 0.0384454
Spine1  0.0644749 -1.55871 -1.14395
HEad  -10.472 -21.9328 10.4883
LeftShoulder1  1.95916 -5.19416 -16.5941
LeftArm  -0.824199 -16.3983 -51.2433
LeftForeArm  6.36829 -9.76797 -10.4763
LeftHand  -0.0252547 2.74427 0.467659
RightShoulder  2.28305 3.93972 25.5029
RightArm  -37.8274 15.3454 53.3399
RightForeArm  23.9946 1.98225 -3.5971
RightHand  -0.380038 0.0733932 -8.12503
LeftUpLeg  -22.6247 4.35474 25.5779
LeftLeg  46.0952 -3.19877 -3.13435
LeftFoot  -28.2157 -3.50492 -24.4301
LeftToes  9.43379e-011 5.24309e-011 -4.66411e-011
1856
root  -7.89434 34.2257 -29.3592 10.3017 48.2727 -1.14044
RightUpLeg  -43.3137 -12.4164 -18.5786
RightLeg  43.3806 -11.986 -12.1472
RightFoot  -6.66915 -0.578514 13.0115
RightToes  -5.28216e-011 1.2921e-014 -6.02303e-014
Spine  20.4004 -2.30973 -0.307192
Spine1  -0.0163952 -1.92509 -0.520413
HEad  -9.85298 -20.677 8.09816
LeftShoulder1  1.9872 -4.99513 -17.5619
LeftArm  0.814779 -12.6525 -49.3132
LeftForeArm  4.47667 -11.4964 -10.0378
LeftHand  -0.021944 2.53856 0.340714
RightShoulder  2.185 3.66652 25.3168
RightArm  -37.7928 13.6129 53.5094
RightForeArm  24.7175 1.5805 -3.46728
RightHand  -0.378404 0.111077 -8.03838
LeftUpLeg  -18.6756 3.04345 26.6602
LeftLeg  42.1603 -2.4578 -1.98611
LeftFoot  -24.6665 -3.39682 -29.7114
LeftToes  9.43379e-011 5.24309e-011 -4.66411e-011
1857
root  -8.25628 34.3544 -27.4616 11.1116 46.3244 0.0722656
RightUpLeg  -44.5422 -13.7913 -16.1917
RightLeg  46.3335 -9.47916 -10.7766
RightFoot  -5.40294 -0.747704 13.6426
RightToes  -5.28216e-011 1.2921e-014 -6.02303e-014
Spine  19.2512 -2.57074 -0.215132
Spine1  -0.104036 -2.24947 0.154179
HEad  -8.93652 -19.188 5.75973
LeftShoulder1  2.01229 -4.78899 -18.5571
LeftArm  -0.100161 -8.91011 -47.3204
LeftForeArm  4.28922 -11.6506 -9.86156
LeftHand  -0.0160837 2.33197 0.0887929
RightShoulder  2.11306 3.44557 25.2697
RightArm  -38.5793 12.2069 53.8279
RightForeArm  25.2001 1.08915 -3.89378
RightHand  -0.35933 -0.110669 -7.93383
LeftUpLeg  -14.7918 1.75505 28.3445
LeftLeg  38.8155 -1.63394 -1.02993
LeftFoot  -18.4294 -2.13577 -35.1753
LeftToes  9.43379e-011 5.24309e-011 -4.66411e-011
1858
root  -8.6636 34.4954 -25.4136 11.6652 43.973 1.52832
RightUpLeg  -45.1529 -14.5038 -13.8363
RightLeg  49.8453 -6.93943 -9.07237
RightFoot  -8.99697 -0.329835 13.0653
RightToes  -5.28216e-011 1.2921e-014 -6.02303e-014
Spine  18.0299 -2.8144 -0.564324
Spine1  0.0279936 -2.44434 -0.0954668
HEad  -7.45877 -17.3785 3.18373
LeftShoulder1  2.06069 -4.71494 -19.4552
LeftArm  -4.06734 -5.42257 -45.5634
LeftForeArm  5.29559 -9.99219 -9.94344
LeftHand  -0.0112014 2.23084 -0.0351526
RightShoulder  2.1122 3.39863 25.4853
RightArm  -39.4458 11.7968 53.8837
RightForeArm  24.9874 -0.848511 -4.9493
RightHand  -0.375046 -0.0717374 -8.2235
LeftUpLeg  -11.2044 -0.358462 29.328
LeftLeg  36.5928 0.827068 1.03177
LeftFoot  -9.67927 0.627559 -37.9641
LeftToes  9.43379e-011 5.24309e-011 -4.66411e-011
1859
root  -9.0115 34.7735 -23.37 12.1268 42.0004 3.08643
RightUpLeg  -43.8718 -14.8646 -12.2763
RightLeg  51.6031 -5.19523 -7.35582
RightFoot  -12.7503 0.086968 14.0807
RightToes  -5.28216e-011 1.2921e-014 -6.02303e-014
Spine  16.7226 -3.14778 -1.55463
Spine1  0.187666 -3.01922 0.141236
HEad  -5.18831 -15.5619 0.792532
LeftShoulder1  2.0863 -4.6764 -19.9334
LeftArm  -9.40121 -2.55669 -45.1149
LeftForeArm  4.30523 -6.12301 -9.63154
LeftHand  -0.0118232 2.3242 -0.0318592
RightShoulder  2.09198 3.30823 25.6141
RightArm  -39.9537 12.7393 53.2614
RightForeArm  24.8282 -4.67791 -6.5511
RightHand  -0.358994 -0.323045 -8.23734
LeftUpLeg  -9.3461 -4.84233 28.399
LeftLeg  37.0551 6.7666 5.82815
LeftFoot  0.739165 3.56522 -32.8817
LeftToes  9.43379e-011 5.24309e-011 -4.66411e-011
1860
root  -9.28893 35.1136 -21.5333 12.5893 40.2152 4.35748
RightUpLeg  -42.1937 -14.692 -11.0146
RightLeg  52.4035 -4.17153 -6.16808
RightFoot  -15.9814 0.42804 13.1991
RightToes  -5.28216e-011 1.2921e-014 -6.02303e-014
Spine  15.6455 -3.37628 -2.35934
Spine1  0.0432084 -3.59105 0.922798
HEad  -2.71923 -14.0768 -1.2438
LeftShoulder1  2.09993 -4.61809 -20.3241
LeftArm  -11.4672 -0.487549 -45.7833
LeftForeArm  -0.722287 -2.63748 -8.7609
LeftHand  -0.00213039 2.42832 -0.446205
RightShoulder  1.97009 3.00284 25.1849
RightArm  -41.0356 13.9568 52.5158
RightForeArm  24.1327 -4.47467 -7.76633
RightHand  -0.320082 -1.01497 -8.42545
LeftUpLeg  -10.1655 -7.33338 25.562
LeftLeg  40.8143 9.11483 8.72736
LeftFoot  7.57382 1.54584 -9.54144
LeftToes  9.43379e-011 5.24309e-011 -4.66411e-011
1861
root  -9.48095 35.4765 -19.8874 12.4911 38.1203 4.30829
RightUpLeg  -40.3367 -12.6977 -9.33567
RightLeg  52.1212 -4.16544 -6.09767
RightFoot  -18.2242 0.607424 12.1225
RightToes  -5.28216e-011 1.2921e-014 -6.02303e-014
Spine  14.8423 -3.48816 -1.60176
Spine1  -0.217872 -3.70206 1.19084
HEad  -1.17151 -12.6839 -2.20282
LeftShoulder1  2.09551 -4.4593 -20.843
LeftArm  -13.4773 0.702643 -46.5596
LeftForeArm  -3.05792 -0.233878 -7.87436
LeftHand  0.0054933 2.62012 -0.852749
RightShoulder  1.92302 2.91913 24.8287
RightArm  -41.8119 14.9278 51.0428
RightForeArm  21.9556 -4.34792 -8.55328
RightHand  -0.277338 -1.57807 -8.29032
LeftUpLeg  -11.9952 -8.20929 23.0591
LeftLeg  45.7939 4.40537 5.26114
LeftFoot  1.09523 0.889441 -8.21559
LeftToes  9.43379e-011 5.24309e-011 -4.66411e-011
